# This file uses centimeters as units for non-parametric coordinates.

mtllib bookshelf.mtl
g default
v -51.361451 0.457007 43.205393
v -35.069855 0.457007 43.205393
v -51.361451 16.398792 43.205393
v -35.069855 16.398792 43.205393
v -51.361451 16.398792 36.967187
v -35.069855 16.398792 36.967187
v -51.361451 0.457007 36.967187
v -35.069855 0.457007 36.967187
v -50.479523 15.274514 36.967187
v -35.871906 15.177772 36.967187
v -35.069855 10.834779 36.967187
v -36.071918 11.446828 36.967187
v -51.361451 10.779435 36.967187
v -50.355314 11.376472 36.967187
v -50.422794 10.214599 36.967187
v -35.969689 10.276844 36.967187
v -51.361451 5.616880 36.967187
v -50.417827 6.119807 36.967187
v -35.069855 5.706563 36.967187
v -36.030211 6.245104 36.967187
v -50.325875 5.109305 36.967187
v -36.025812 5.158898 36.967187
v -50.454175 1.445863 36.967187
v -36.029603 1.450842 36.967187
v -50.355314 11.376472 41.846230
v -50.479523 15.274514 41.846230
v -35.871906 15.177772 41.846230
v -36.071918 11.446828 41.846230
v -36.030211 6.245104 41.846229
v -50.417827 6.119807 41.846229
v -50.422794 10.214599 41.846229
v -35.969689 10.276844 41.846229
v -36.025812 5.158898 41.846229
v -36.029603 1.450842 41.846229
v -50.454175 1.445863 41.846229
v -50.325875 5.109305 41.846229
vt 0.375000 0.000000
vt 0.625000 0.000000
vt 0.375000 0.250000
vt 0.625000 0.250000
vt 0.375000 0.500000
vt 0.625000 0.500000
vt 0.375000 0.750000
vt 0.625000 0.750000
vt 0.375000 1.000000
vt 0.625000 1.000000
vt 0.875000 0.000000
vt 0.875000 0.250000
vt 0.125000 0.000000
vt 0.125000 0.250000
vt 0.388534 0.517631
vt 0.612692 0.519148
vt 0.625000 0.574590
vt 0.875000 0.175410
vt 0.609623 0.562698
vt 0.125000 0.167715
vt 0.375000 0.582286
vt 0.390440 0.565306
vt 0.389404 0.601995
vt 0.611192 0.594191
vt 0.125000 0.086755
vt 0.375000 0.663245
vt 0.389480 0.650503
vt 0.625000 0.653930
vt 0.875000 0.096070
vt 0.610263 0.640629
vt 0.390891 0.683785
vt 0.610331 0.675098
vt 0.388922 0.734493
vt 0.606082 0.734415
vt 0.390440 0.565306
vt 0.388534 0.517631
vt 0.612692 0.519148
vt 0.609623 0.562698
vt 0.610263 0.640629
vt 0.389480 0.650503
vt 0.389404 0.601995
vt 0.611192 0.594191
vt 0.610331 0.675098
vt 0.606082 0.734415
vt 0.388922 0.734493
vt 0.390891 0.683785
vn 0.000000 0.000000 1.000000
vn 0.000000 0.000000 1.000000
vn 0.000000 0.000000 1.000000
vn 0.000000 0.000000 1.000000
vn 0.000000 1.000000 0.000000
vn 0.000000 1.000000 0.000000
vn 0.000000 1.000000 0.000000
vn 0.000000 1.000000 0.000000
vn 0.000000 0.000000 -1.000000
vn 0.000000 0.000000 -1.000000
vn 0.000000 0.000000 -1.000000
vn 0.000000 0.000000 -1.000000
vn 0.000000 -1.000000 0.000000
vn 0.000000 -1.000000 0.000000
vn 0.000000 -1.000000 0.000000
vn 0.000000 -1.000000 0.000000
vn 1.000000 0.000000 0.000000
vn 1.000000 0.000000 0.000000
vn 1.000000 0.000000 0.000000
vn 1.000000 0.000000 0.000000
vn 1.000000 0.000000 0.000000
vn 1.000000 0.000000 0.000000
vn -1.000000 0.000000 0.000000
vn -1.000000 0.000000 0.000000
vn -1.000000 0.000000 0.000000
vn -1.000000 0.000000 0.000000
vn -1.000000 0.000000 0.000000
vn -1.000000 0.000000 0.000000
vn 0.000000 0.000000 -1.000000
vn 0.000000 0.000000 -1.000000
vn 0.000000 0.000000 -1.000000
vn 0.000000 0.000000 -1.000000
vn -0.000000 0.000000 -1.000000
vn 0.000000 0.000000 -1.000000
vn -0.000000 0.000000 -1.000000
vn 0.000000 0.000000 -1.000000
vn -0.000000 0.000000 -1.000000
vn -0.000000 0.000000 -1.000000
vn -0.000000 0.000000 -1.000000
vn -0.000000 0.000000 -1.000000
vn 0.000000 0.000000 -1.000000
vn 0.000000 0.000000 -1.000000
vn 0.000000 0.000000 -1.000000
vn 0.000000 0.000000 -1.000000
vn -0.000000 0.000000 -1.000000
vn -0.000000 0.000000 -1.000000
vn -0.000000 0.000000 -1.000000
vn 0.000000 0.000000 -1.000000
vn 0.000000 0.000000 -1.000000
vn -0.000000 0.000000 -1.000000
vn 0.000000 0.000000 -1.000000
vn 0.000000 0.000000 -1.000000
vn 0.000000 0.000000 -1.000000
vn 0.000000 0.000000 -1.000000
vn 0.000000 0.000000 -1.000000
vn 0.000000 0.000000 -1.000000
vn 0.999493 0.031848 0.000000
vn 0.999493 0.031848 0.000000
vn 0.999493 0.031848 0.000000
vn 0.999493 0.031848 0.000000
vn -0.006623 -0.999978 0.000000
vn -0.006623 -0.999978 0.000000
vn -0.006623 -0.999978 0.000000
vn -0.006623 -0.999978 0.000000
vn -0.998566 0.053532 0.000000
vn -0.998566 0.053532 0.000000
vn -0.998566 0.053532 0.000000
vn -0.998566 0.053532 0.000000
vn -0.004926 0.999988 0.000000
vn -0.004926 0.999988 0.000000
vn -0.004926 0.999988 0.000000
vn -0.004926 0.999988 0.000000
vn -0.008708 0.999962 0.000000
vn -0.008708 0.999962 0.000000
vn -0.008708 0.999962 0.000000
vn -0.008708 0.999962 0.000000
vn 0.999999 0.001213 0.000000
vn 0.999999 0.001213 0.000000
vn 0.999999 0.001213 0.000000
vn 0.999999 0.001213 0.000000
vn 0.004307 -0.999991 0.000000
vn 0.004307 -0.999991 0.000000
vn 0.004307 -0.999991 0.000000
vn 0.004307 -0.999991 0.000000
vn -0.999887 0.015010 0.000000
vn -0.999887 0.015010 0.000000
vn -0.999887 0.015010 0.000000
vn -0.999887 0.015010 0.000000
vn -0.999999 0.001022 0.000000
vn -0.999999 0.001022 0.000000
vn -0.999999 0.001022 0.000000
vn -0.999999 0.001022 0.000000
vn -0.000345 1.000000 0.000000
vn -0.000345 1.000000 0.000000
vn -0.000345 1.000000 0.000000
vn -0.000345 1.000000 0.000000
vn 0.999387 -0.035000 0.000000
vn 0.999387 -0.035000 0.000000
vn 0.999387 -0.035000 0.000000
vn 0.999387 -0.035000 0.000000
vn 0.003468 -0.999994 0.000000
vn 0.003468 -0.999994 0.000000
vn 0.003468 -0.999994 0.000000
vn 0.003468 -0.999994 0.000000
s off
g bookshelf
usemtl standardSurface9SG
f 1/1/1 2/2/2 4/4/3 3/3/4
f 3/3/5 4/4/6 6/6/7 5/5/8
f 25/35/9 26/36/10 27/37/11 28/38/12
f 7/7/13 8/8/14 2/10/15 1/9/16
f 2/2/17 8/11/18 19/29/19 11/18/20 6/12/21 4/4/22
f 7/13/23 1/1/24 3/3/25 5/14/26 13/20/27 17/25/28
s 1
f 5/5/29 6/6/30 10/16/31 9/15/32
f 11/17/33 12/19/34 10/16/31 6/6/30
f 13/21/35 14/22/36 12/19/34 11/17/33
f 5/5/29 9/15/32 14/22/36 13/21/35
f 13/21/35 15/23/37 18/27/38 17/26/39
f 13/21/35 11/17/33 16/24/40 15/23/37
s off
f 29/39/41 30/40/42 31/41/43 32/42/44
s 1
f 19/28/45 20/30/46 16/24/40 11/17/33
f 17/26/39 18/27/38 20/30/46 19/28/45
f 17/26/39 21/31/47 23/33/48 7/7/49
f 17/26/39 19/28/45 22/32/50 21/31/47
f 7/7/49 23/33/48 24/34/51 8/8/52
s off
f 33/43/53 34/44/54 35/45/55 36/46/56
s 1
f 8/8/52 24/34/51 22/32/50 19/28/45
s off
f 14/22/57 9/15/58 26/36/59 25/35/60
f 9/15/61 10/16/62 27/37/63 26/36/64
f 10/16/65 12/19/66 28/38/67 27/37/68
f 12/19/69 14/22/70 25/35/71 28/38/72
f 20/30/73 18/27/74 30/40/75 29/39/76
f 18/27/77 15/23/78 31/41/79 30/40/80
f 15/23/81 16/24/82 32/42/83 31/41/84
f 16/24/85 20/30/86 29/39/87 32/42/88
f 22/32/89 24/34/90 34/44/91 33/43/92
f 24/34/93 23/33/94 35/45/95 34/44/96
f 23/33/97 21/31/98 36/46/99 35/45/100
f 21/31/101 22/32/102 33/43/103 36/46/104
