# This file uses centimeters as units for non-parametric coordinates.

mtllib countertop.mtl
g default
v 23.248675 5.102622 43.735446
v 23.224027 5.834124 43.725738
v 23.025062 5.834124 -18.444891
v 23.034309 5.102622 -18.467684
v 13.358041 5.834124 34.210236
v 13.358041 5.102622 34.210236
v 13.455396 5.102622 -8.513322
v 13.552539 5.834124 -8.454604
v -13.153358 5.834124 34.210236
v -13.153358 5.102622 34.210236
v -13.153358 5.102622 43.931842
v -13.153358 5.834124 43.931842
v -3.556618 5.102622 -18.589114
v -3.556618 5.102622 -8.454604
v -3.556618 5.834124 -8.454604
v -3.556618 5.834124 -18.589114
v 21.843365 5.834124 5.211355
v 14.675942 5.834124 5.256020
v 14.713822 5.834124 20.406419
v 21.733990 5.834124 20.354763
v 13.877390 5.102622 21.160348
v 13.988958 5.102622 4.635156
v 22.283126 5.102622 21.172489
v 22.380715 5.102622 4.447840
v 22.380715 1.473521 4.447840
v 22.283126 1.473521 21.172489
v 13.877390 1.473521 21.160348
v 13.988958 1.473521 4.635156
v 14.713822 1.937598 20.406419
v 21.733990 1.937598 20.354763
v 21.843365 1.937598 5.211355
v 14.675942 1.937598 5.256020
vt 0.557538 0.000000
vt 0.574403 0.261903
vt 0.375000 0.363091
vt 0.250000 0.253970
vt 0.541667 0.984129
vt 0.851182 0.000000
vt 0.851182 0.250000
vt 0.327387 0.250000
vt 0.375000 0.297613
vt 0.327387 0.000000
vt 0.375000 0.952387
vt 0.172637 0.000000
vt 0.375000 0.797637
vt 0.172636 0.250000
vt 0.375000 0.452363
vt 0.327387 0.250000
vt 0.327387 0.000000
vt 0.375000 0.000000
vt 0.375000 0.250000
vt 0.125000 0.000000
vt 0.172637 0.000000
vt 0.172636 0.250000
vt 0.125000 0.250000
vt 0.395981 0.336023
vt 0.375000 0.377247
vt 0.383177 0.316645
vt 0.445087 0.307142
vt 0.348523 0.780163
vt 0.332905 0.675758
vt 0.428775 0.773693
vt 0.349989 0.579694
vt 0.349989 0.579694
vt 0.428775 0.773693
vt 0.348523 0.780163
vt 0.332905 0.675758
vt 0.383177 0.316645
vt 0.445087 0.307142
vt 0.395981 0.336023
vt 0.375000 0.377247
vn 0.000000 1.000000 0.000000
vn 0.000000 1.000000 0.000000
vn 0.000000 1.000000 0.000000
vn 0.000000 1.000000 0.000000
vn 0.000000 -1.000000 0.000000
vn 0.000000 -1.000000 0.000000
vn 0.000000 -1.000000 0.000000
vn 0.000000 -1.000000 0.000000
vn 0.999726 0.023191 -0.003322
vn 0.999726 0.023191 -0.003322
vn 0.999726 0.023191 -0.003322
vn 0.999726 0.023191 -0.003322
vn -1.000000 0.000000 0.000000
vn -1.000000 0.000000 0.000000
vn -1.000000 0.000000 0.000000
vn -1.000000 0.000000 0.000000
vn -1.000000 0.000000 0.000000
vn -1.000000 0.000000 0.000000
vn -1.000000 0.000000 0.000000
vn -1.000000 0.000000 0.000000
vn -0.997788 0.066390 -0.003410
vn -0.997788 0.066390 -0.003410
vn -0.997788 0.066390 -0.003410
vn -0.997788 0.066390 -0.003410
vn 0.000000 0.000000 -1.000000
vn 0.000000 0.000000 -1.000000
vn 0.000000 0.000000 -1.000000
vn 0.000000 0.000000 -1.000000
vn 0.000000 -1.000000 0.000000
vn 0.000000 -1.000000 0.000000
vn 0.005530 0.006728 0.999962
vn 0.005530 0.006728 0.999962
vn 0.005530 0.006728 0.999962
vn 0.005530 0.006728 0.999962
vn 0.000000 1.000000 0.000000
vn 0.000000 1.000000 0.000000
vn 0.000000 1.000000 0.000000
vn 0.000000 -1.000000 -0.000000
vn 0.000000 -1.000000 -0.000000
vn 0.000000 -1.000000 -0.000000
vn 0.000000 -1.000000 -0.000000
vn 0.001719 -0.040217 0.999189
vn 0.001719 -0.040217 0.999189
vn 0.001719 -0.040217 0.999189
vn 0.001719 -0.040217 0.999189
vn 0.000000 1.000000 0.000000
vn 0.000000 1.000000 0.000000
vn 0.000000 1.000000 0.000000
vn 0.004995 0.015609 -0.999866
vn 0.004995 0.015609 -0.999866
vn 0.004995 0.015609 -0.999866
vn 0.004995 0.015609 -0.999866
vn 0.000000 1.000000 0.000000
vn 0.000000 1.000000 0.000000
vn 0.000000 1.000000 0.000000
vn 0.000000 1.000000 0.000000
vn 0.000000 1.000000 0.000000
vn 0.000000 1.000000 0.000000
vn 0.000000 -1.000000 0.000000
vn 0.000000 -1.000000 0.000000
vn 0.000000 -1.000000 0.000000
vn 0.000000 -1.000000 0.000000
vn 0.000000 -1.000000 0.000000
vn 0.000000 -1.000000 0.000000
vn 0.999983 0.000000 0.005835
vn 0.999983 0.000000 0.005835
vn 0.999983 0.000000 0.005835
vn 0.999983 0.000000 0.005835
vn -0.001444 0.000000 0.999999
vn -0.001444 0.000000 0.999999
vn -0.001444 0.000000 0.999999
vn -0.001444 0.000000 0.999999
vn -0.999977 0.000000 -0.006751
vn -0.999977 0.000000 -0.006751
vn -0.999977 0.000000 -0.006751
vn -0.999977 0.000000 -0.006751
vn -0.022316 0.000000 -0.999751
vn -0.022316 0.000000 -0.999751
vn -0.022316 0.000000 -0.999751
vn -0.022316 0.000000 -0.999751
vn -0.007358 0.000000 -0.999973
vn -0.007358 0.000000 -0.999973
vn -0.007358 0.000000 -0.999973
vn -0.007358 0.000000 -0.999973
vn -0.999974 0.000000 -0.007222
vn -0.999974 0.000000 -0.007222
vn -0.999974 0.000000 -0.007222
vn -0.999974 0.000000 -0.007222
vn 0.006232 0.000000 0.999981
vn 0.006232 0.000000 0.999981
vn 0.006232 0.000000 0.999981
vn 0.006232 0.000000 0.999981
vn 0.999997 0.000000 -0.002500
vn 0.999997 0.000000 -0.002500
vn 0.999997 0.000000 -0.002500
vn 0.999997 0.000000 -0.002500
s 1
g countertop
usemtl standardSurface5SG
f 17/24/1 20/27/2 2/2/3 3/3/4
s 2
f 1/5/5 6/11/6 21/28/7 23/30/8
s off
f 2/2/9 1/1/10 4/6/11 3/7/12
f 9/16/13 10/17/14 11/18/15 12/19/16
f 13/20/17 14/21/18 15/22/19 16/23/20
f 8/14/21 7/12/22 6/10/23 5/8/24
f 5/8/25 6/10/26 10/17/27 9/16/28
s 2
f 6/10/6 1/1/5 11/18/29 10/17/30
s off
f 2/2/31 12/19/32 11/18/33 1/1/34
s 1
f 2/2/3 5/8/35 9/16/36 12/19/37
s 2
f 7/12/38 14/21/39 13/20/40 4/4/41
s off
f 7/12/42 8/14/43 15/22/44 14/21/45
s 1
f 3/3/4 16/23/46 15/22/47 8/15/48
s off
f 4/4/49 13/20/50 16/23/51 3/3/52
s 1
f 8/15/48 18/25/53 17/24/1 3/3/4
f 5/9/35 19/26/54 18/25/53 8/15/48
f 5/9/35 2/2/3 20/27/2 19/26/54
s off
f 29/36/55 30/37/56 31/38/57 32/39/58
s 2
f 7/13/38 22/29/59 21/28/7 6/11/6
s off
f 25/32/60 26/33/61 27/34/62 28/35/63
s 2
f 4/4/41 24/31/64 22/29/59 7/13/38
f 1/5/5 23/30/8 24/31/64 4/4/41
s off
f 24/31/65 23/30/66 26/33/67 25/32/68
f 23/30/69 21/28/70 27/34/71 26/33/72
f 21/28/73 22/29/74 28/35/75 27/34/76
f 22/29/77 24/31/78 25/32/79 28/35/80
f 19/26/81 20/27/82 30/37/83 29/36/84
f 20/27/85 17/24/86 31/38/87 30/37/88
f 17/24/89 18/25/90 32/39/91 31/38/92
f 18/25/93 19/26/94 29/36/95 32/39/96
