# This file uses centimeters as units for non-parametric coordinates.

mtllib fridge.mtl
g default
v -13.174588 0.785343 -11.171160
v -5.252381 0.785343 -11.171160
v -13.174588 13.836694 -11.171160
v -5.252381 13.836694 -11.171160
v -13.174588 13.836693 -18.360818
v -5.252381 13.836693 -18.360818
v -13.174588 0.785343 -18.360818
v -5.252381 0.785343 -18.360818
v -5.953314 13.212135 -11.171160
v -12.453345 13.181796 -11.171160
v -13.174588 9.077245 -11.171160
v -12.431471 9.641319 -11.171160
v -5.252381 9.001933 -11.171160
v -5.979139 9.605305 -11.171160
v -5.935235 8.443447 -11.171160
v -12.481438 8.444481 -11.171160
v -5.993846 1.559390 -11.171160
v -12.500507 1.601504 -11.171160
v -12.481437 8.444481 -17.703910
v -12.500507 1.601504 -17.703910
v -5.993846 1.559390 -17.703910
v -5.935235 8.443447 -17.703910
v -12.431472 9.641319 -17.712954
v -5.979140 9.605305 -17.712954
v -5.953315 13.212135 -17.712954
v -12.453346 13.181796 -17.712954
vt 0.375000 0.000000
vt 0.625000 0.000000
vt 0.375000 0.250000
vt 0.625000 0.250000
vt 0.375000 0.500000
vt 0.625000 0.500000
vt 0.375000 0.750000
vt 0.625000 0.750000
vt 0.375000 1.000000
vt 0.625000 1.000000
vt 0.875000 0.000000
vt 0.875000 0.250000
vt 0.125000 0.000000
vt 0.125000 0.250000
vt 0.599002 0.227201
vt 0.408832 0.226844
vt 0.375000 0.144106
vt 0.411640 0.166699
vt 0.625000 0.139642
vt 0.597940 0.164568
vt 0.593148 0.102634
vt 0.408372 0.105112
vt 0.589000 0.021399
vt 0.409364 0.022263
vt 0.408372 0.105112
vt 0.409364 0.022263
vt 0.589000 0.021399
vt 0.593148 0.102634
vt 0.411640 0.166699
vt 0.597940 0.164568
vt 0.599002 0.227201
vt 0.408832 0.226844
vn 0.000000 0.000000 1.000000
vn 0.000000 0.000000 1.000000
vn 0.000000 0.000000 1.000000
vn 0.000000 0.000000 1.000000
vn 0.000000 1.000000 -0.000000
vn 0.000000 1.000000 -0.000000
vn 0.000000 1.000000 -0.000000
vn 0.000000 1.000000 -0.000000
vn 0.000000 0.000000 -1.000000
vn 0.000000 0.000000 -1.000000
vn 0.000000 0.000000 -1.000000
vn 0.000000 0.000000 -1.000000
vn 0.000000 -1.000000 0.000000
vn 0.000000 -1.000000 0.000000
vn 0.000000 -1.000000 0.000000
vn 0.000000 -1.000000 0.000000
vn 1.000000 0.000000 0.000000
vn 1.000000 0.000000 0.000000
vn 1.000000 0.000000 0.000000
vn 1.000000 0.000000 0.000000
vn 1.000000 0.000000 0.000000
vn -1.000000 0.000000 0.000000
vn -1.000000 0.000000 0.000000
vn -1.000000 0.000000 0.000000
vn -1.000000 0.000000 0.000000
vn -1.000000 0.000000 0.000000
vn 0.000000 0.000000 1.000000
vn 0.000000 0.000000 1.000000
vn 0.000000 0.000000 1.000000
vn 0.000000 0.000000 1.000000
vn 0.000000 0.000000 1.000000
vn 0.000000 0.000000 1.000000
vn 0.000000 0.000000 1.000000
vn 0.000000 0.000000 1.000000
vn 0.000000 0.000000 1.000000
vn 0.000000 0.000000 1.000000
vn 0.000000 0.000000 1.000000
vn 0.000000 0.000000 1.000000
vn 0.000000 0.000000 1.000000
vn 0.000000 0.000000 1.000000
vn 0.000000 0.000000 1.000000
vn 0.000000 0.000000 1.000000
vn 0.000000 0.000000 1.000000
vn 0.000000 0.000000 1.000000
vn 0.999996 -0.002787 0.000000
vn 0.999996 -0.002787 0.000000
vn 0.999996 -0.002787 0.000000
vn 0.999996 -0.002787 0.000000
vn 0.006472 0.999979 -0.000000
vn 0.006472 0.999979 -0.000000
vn 0.006472 0.999979 -0.000000
vn 0.006472 0.999979 -0.000000
vn -0.999964 0.008514 0.000000
vn -0.999964 0.008514 0.000000
vn -0.999964 0.008514 0.000000
vn -0.999964 0.008514 0.000000
vn -0.000158 -1.000000 -0.000000
vn -0.000158 -1.000000 -0.000000
vn -0.000158 -1.000000 -0.000000
vn -0.000158 -1.000000 -0.000000
vn 0.005581 0.999984 -0.000000
vn 0.005581 0.999984 -0.000000
vn 0.005581 0.999984 -0.000000
vn 0.005581 0.999984 -0.000000
vn -0.999974 0.007160 0.000000
vn -0.999974 0.007160 0.000000
vn -0.999974 0.007160 0.000000
vn -0.999974 0.007160 0.000000
vn 0.004667 -0.999989 -0.000000
vn 0.004667 -0.999989 -0.000000
vn 0.004667 -0.999989 -0.000000
vn 0.004667 -0.999989 -0.000000
vn 0.999981 0.006178 -0.000000
vn 0.999981 0.006178 -0.000000
vn 0.999981 0.006178 -0.000000
vn 0.999981 0.006178 -0.000000
s 1
g fridge fridge
usemtl standardSurface4SG
f 9/15/1 14/20/2 13/19/3 4/4/4
s off
f 3/3/5 4/4/6 6/6/7 5/5/8
f 5/5/9 6/6/10 8/8/11 7/7/12
f 7/7/13 8/8/14 2/10/15 1/9/16
f 2/2/17 8/11/18 6/12/19 4/4/20 13/19/21
f 7/13/22 1/1/23 11/17/24 3/3/25 5/14/26
s 1
f 3/3/27 10/16/28 9/15/1 4/4/4
f 11/17/29 12/18/30 10/16/28 3/3/27
s off
f 23/29/31 24/30/32 25/31/33 26/32/34
s 1
f 11/17/29 13/19/3 14/20/2 12/18/30
s off
f 19/25/35 20/26/36 21/27/37 22/28/38
s 1
f 11/17/29 16/22/39 15/21/40 13/19/3
f 15/21/40 17/23/41 2/2/42 13/19/3
f 1/1/43 2/2/42 17/23/41 18/24/44
f 1/1/43 18/24/44 16/22/39 11/17/29
s off
f 16/22/45 18/24/46 20/26/47 19/25/48
f 18/24/49 17/23/50 21/27/51 20/26/52
f 17/23/53 15/21/54 22/28/55 21/27/56
f 15/21/57 16/22/58 19/25/59 22/28/60
f 12/18/61 14/20/62 24/30/63 23/29/64
f 14/20/65 9/15/66 25/31/67 24/30/68
f 9/15/69 10/16/70 26/32/71 25/31/72
f 10/16/73 12/18/74 23/29/75 26/32/76
