# This file uses centimeters as units for non-parametric coordinates.

mtllib sink.mtl
g default
v 13.811659 5.759535 21.555674
v 22.489386 5.759535 21.555674
v 13.811659 6.097197 21.555674
v 22.489386 6.097197 21.555674
v 13.811659 6.097197 4.175016
v 22.489386 6.097197 4.175016
v 13.811659 5.759535 4.175016
v 22.489386 5.759535 4.175016
v 13.811659 6.097197 19.279331
v 13.811659 5.759535 19.279331
v 22.489386 5.759535 19.279331
v 22.489386 6.097197 19.279331
v 13.811659 5.759535 6.267180
v 13.811659 6.097197 6.267180
v 22.489386 6.097197 6.267180
v 22.489386 5.759535 6.267180
v 14.893034 5.759535 21.555674
v 14.893034 6.097197 21.555674
v 15.261299 6.097197 18.982789
v 15.290389 6.097197 6.504578
v 14.893034 6.097197 4.175016
v 14.893034 5.759535 4.175016
v 14.893034 5.759535 6.267180
v 14.893034 5.759535 19.279331
v 20.788007 6.097197 18.891432
v 21.210811 6.097197 21.555674
v 21.210811 5.759535 21.555674
v 21.210811 5.759535 19.279331
v 21.210811 5.759535 6.267180
v 21.210811 5.759535 4.175016
v 21.210811 6.097197 4.175016
v 20.954521 6.097197 6.526760
v 14.758625 5.759535 5.721924
v 14.758625 5.759535 19.846198
v 21.309204 5.759535 5.721924
v 21.309204 5.759535 19.846198
v 14.758625 2.278765 5.721925
v 14.758625 2.278765 19.846198
v 21.309204 2.278765 5.721924
v 21.309204 2.278765 19.846198
v 15.261299 2.847299 18.982789
v 15.290389 2.847299 6.504578
v 20.788007 2.847299 18.891432
v 20.954521 2.847299 6.526760
vt 0.375000 0.000000
vt 0.625000 0.000000
vt 0.375000 0.250000
vt 0.625000 0.250000
vt 0.375000 0.500000
vt 0.625000 0.500000
vt 0.375000 0.750000
vt 0.625000 0.750000
vt 0.375000 1.000000
vt 0.625000 1.000000
vt 0.875000 0.000000
vt 0.875000 0.250000
vt 0.125000 0.000000
vt 0.125000 0.250000
vt 0.314099 0.250000
vt 0.375000 0.310901
vt 0.314099 0.000000
vt 0.375000 0.939099
vt 0.625000 0.939099
vt 0.685901 0.000000
vt 0.625000 0.310901
vt 0.685901 0.250000
vt 0.188107 0.000000
vt 0.375000 0.813107
vt 0.188107 0.250000
vt 0.375000 0.436893
vt 0.625000 0.436893
vt 0.811893 0.250000
vt 0.625000 0.813107
vt 0.811893 0.000000
vt 0.406154 0.000000
vt 0.406154 1.000000
vt 0.406154 0.250000
vt 0.406154 0.310901
vt 0.406154 0.436893
vt 0.406154 0.500000
vt 0.406154 0.750000
vt 0.406154 0.813107
vt 0.406154 0.939099
vt 0.588165 0.310901
vt 0.588165 0.250000
vt 0.588165 0.000000
vt 0.588165 1.000000
vt 0.588165 0.939099
vt 0.588165 0.813107
vt 0.588165 0.750000
vt 0.588165 0.500000
vt 0.588165 0.436893
vt 0.406154 0.939099
vt 0.406154 0.813107
vt 0.588165 0.813107
vt 0.588165 0.939099
vt 0.406154 0.939099
vt 0.406154 0.813107
vt 0.588165 0.813107
vt 0.588165 0.939099
vt 0.406154 0.436893
vt 0.406154 0.310901
vt 0.588165 0.310901
vt 0.588165 0.436893
vn 0.000000 0.000000 1.000000
vn 0.000000 0.000000 1.000000
vn 0.000000 0.000000 1.000000
vn 0.000000 0.000000 1.000000
vn 0.000000 1.000000 0.000000
vn 0.000000 1.000000 0.000000
vn 0.000000 1.000000 0.000000
vn 0.000000 1.000000 0.000000
vn 0.000000 0.000000 -1.000000
vn 0.000000 0.000000 -1.000000
vn 0.000000 0.000000 -1.000000
vn 0.000000 0.000000 -1.000000
vn 0.000000 -1.000000 0.000000
vn 0.000000 -1.000000 0.000000
vn 0.000000 -1.000000 0.000000
vn 0.000000 -1.000000 0.000000
vn 1.000000 0.000000 0.000000
vn 1.000000 0.000000 0.000000
vn 1.000000 0.000000 0.000000
vn 1.000000 0.000000 0.000000
vn -1.000000 0.000000 0.000000
vn -1.000000 0.000000 0.000000
vn -1.000000 0.000000 0.000000
vn -1.000000 0.000000 0.000000
vn -1.000000 0.000000 0.000000
vn -1.000000 0.000000 0.000000
vn -1.000000 0.000000 0.000000
vn -1.000000 0.000000 0.000000
vn 0.000000 -1.000000 0.000000
vn 0.000000 -1.000000 0.000000
vn 0.000000 -1.000000 0.000000
vn 0.000000 -1.000000 0.000000
vn 1.000000 0.000000 0.000000
vn 1.000000 0.000000 0.000000
vn 1.000000 0.000000 0.000000
vn 1.000000 0.000000 0.000000
vn 0.000000 1.000000 0.000000
vn 0.000000 1.000000 0.000000
vn 0.000000 1.000000 0.000000
vn 0.000000 1.000000 0.000000
vn 0.000000 0.000000 1.000000
vn 0.000000 0.000000 1.000000
vn 0.000000 0.000000 1.000000
vn 0.000000 0.000000 1.000000
vn 0.000000 1.000000 0.000000
vn 0.000000 1.000000 0.000000
vn 0.000000 1.000000 0.000000
vn 0.000000 1.000000 0.000000
vn 0.000000 1.000000 0.000000
vn 0.000000 1.000000 0.000000
vn 0.000000 1.000000 0.000000
vn 0.000000 1.000000 0.000000
vn 0.000000 0.000000 -1.000000
vn 0.000000 0.000000 -1.000000
vn 0.000000 0.000000 -1.000000
vn 0.000000 0.000000 -1.000000
vn 0.000000 -1.000000 0.000000
vn 0.000000 -1.000000 0.000000
vn 0.000000 -1.000000 0.000000
vn 0.000000 -1.000000 0.000000
vn 0.000000 -1.000000 0.000000
vn 0.000000 -1.000000 0.000000
vn 0.000000 -1.000000 0.000000
vn 0.000000 -1.000000 0.000000
vn 0.000000 -1.000000 0.000000
vn 0.000000 -1.000000 0.000000
vn 0.000000 -1.000000 0.000000
vn 0.000000 -1.000000 0.000000
vn 0.000000 1.000000 0.000000
vn 0.000000 1.000000 0.000000
vn 0.000000 1.000000 0.000000
vn 0.000000 1.000000 0.000000
vn 0.000000 1.000000 0.000000
vn 0.000000 1.000000 0.000000
vn 0.000000 1.000000 0.000000
vn 0.000000 1.000000 0.000000
vn 0.000000 1.000000 0.000000
vn 0.000000 1.000000 0.000000
vn 0.000000 1.000000 0.000000
vn 0.000000 1.000000 0.000000
vn 0.000000 1.000000 0.000000
vn 0.000000 1.000000 0.000000
vn 0.000000 1.000000 0.000000
vn 0.000000 1.000000 0.000000
vn 0.000000 1.000000 -0.000000
vn 0.000000 1.000000 -0.000000
vn 0.000000 1.000000 -0.000000
vn 0.000000 1.000000 -0.000000
vn -1.000000 0.000000 0.000000
vn -1.000000 0.000000 0.000000
vn -1.000000 0.000000 0.000000
vn -1.000000 0.000000 0.000000
vn 0.000000 -0.000000 -1.000000
vn 0.000000 -0.000000 -1.000000
vn 0.000000 -0.000000 -1.000000
vn 0.000000 -0.000000 -1.000000
vn 1.000000 0.000000 0.000000
vn 1.000000 0.000000 0.000000
vn 1.000000 0.000000 0.000000
vn 1.000000 0.000000 0.000000
vn 0.000000 0.000000 1.000000
vn 0.000000 0.000000 1.000000
vn 0.000000 0.000000 1.000000
vn 0.000000 0.000000 1.000000
vn 0.999997 0.000000 0.002331
vn 0.999997 0.000000 0.002331
vn 0.999997 0.000000 0.002331
vn 0.999997 0.000000 0.002331
vn -0.016528 0.000000 -0.999863
vn -0.016528 0.000000 -0.999863
vn -0.016528 0.000000 -0.999863
vn -0.016528 0.000000 -0.999863
vn -0.999909 0.000000 -0.013466
vn -0.999909 0.000000 -0.013466
vn -0.999909 0.000000 -0.013466
vn -0.999909 0.000000 -0.013466
vn -0.003916 0.000000 0.999992
vn -0.003916 0.000000 0.999992
vn -0.003916 0.000000 0.999992
vn -0.003916 0.000000 0.999992
s 1
g sink
usemtl standardSurface11SG
f 1/1/1 17/31/2 18/33/3 3/3/4
s 2
f 3/3/5 18/33/6 19/34/7 9/16/8
s 3
f 5/5/9 21/36/10 22/37/11 7/7/12
s 4
f 10/18/13 24/39/14 17/32/15 1/9/16
s 5
f 2/2/17 11/20/18 12/22/19 4/4/20
s 6
f 9/15/21 10/17/22 1/1/23 3/3/24
f 7/13/25 13/23/26 14/25/27 5/14/28
s 4
f 7/7/29 22/37/30 23/38/31 13/24/32
s 5
f 15/28/33 16/30/34 8/11/35 6/12/36
s 2
f 14/26/37 20/35/38 21/36/39 5/5/40
s 6
f 14/25/27 13/23/26 10/17/22 9/15/21
s 2
f 9/16/8 19/34/7 20/35/38 14/26/37
s 5
f 12/22/19 11/20/18 16/30/34 15/28/33
s 4
f 13/24/32 23/38/31 24/39/14 10/18/13
s 1
f 26/41/41 27/42/42 2/2/43 4/4/44
s 2
f 25/40/45 26/41/46 4/4/47 12/21/48
f 32/48/49 25/40/45 12/21/48 15/27/50
f 31/47/51 32/48/49 15/27/50 6/6/52
s 3
f 30/46/53 31/47/54 6/6/55 8/8/56
s 4
f 29/45/57 30/46/58 8/8/59 16/29/60
f 28/44/61 29/45/57 16/29/60 11/19/62
f 27/43/63 28/44/61 11/19/62 2/10/64
s 2
f 19/34/7 18/33/6 26/41/46 25/40/45
s 1
f 18/33/3 17/31/2 27/42/42 26/41/41
s 4
f 17/32/15 24/39/14 28/44/61 27/43/63
s off
f 38/53/65 37/54/66 39/55/67 40/56/68
s 4
f 23/38/31 22/37/30 30/46/58 29/45/57
s 3
f 22/37/11 21/36/10 31/47/54 30/46/53
s 2
f 21/36/39 20/35/38 32/48/49 31/47/51
s off
f 42/57/69 41/58/70 43/59/71 44/60/72
f 24/39/73 23/38/74 33/50/75 34/49/76
f 23/38/77 29/45/78 35/51/79 33/50/80
f 29/45/81 28/44/82 36/52/83 35/51/84
f 28/44/85 24/39/86 34/49/87 36/52/88
f 34/49/89 33/50/90 37/54/91 38/53/92
f 33/50/93 35/51/94 39/55/95 37/54/96
f 35/51/97 36/52/98 40/56/99 39/55/100
f 36/52/101 34/49/102 38/53/103 40/56/104
f 20/35/105 19/34/106 41/58/107 42/57/108
f 19/34/109 25/40/110 43/59/111 41/58/112
f 25/40/113 32/48/114 44/60/115 43/59/116
f 32/48/117 20/35/118 42/57/119 44/60/120
