# This file uses centimeters as units for non-parametric coordinates.

mtllib under_counter_cupboard_2.mtl
g default
v -12.728782 5.169563 35.178968
v 23.182824 5.169563 35.178968
v -12.728782 0.443151 35.178968
v 23.182824 0.443151 35.178968
v -12.728782 0.443151 43.873678
v 23.182824 0.443151 43.873678
v -12.728782 5.169563 43.873678
v 23.182824 5.169563 43.873678
v 14.986239 0.443151 35.178968
v 15.193670 5.169563 35.178968
v 14.986239 0.443151 21.181333
v 15.193670 5.169563 21.181333
v 23.182824 5.169563 21.181333
v 23.182824 0.443151 21.181333
v 14.201309 0.810137 35.178968
v -12.179439 0.778979 35.178968
v -12.194656 4.619888 35.178968
v 14.399113 4.599597 35.178968
v 5.729602 0.835531 35.178968
v 5.814315 4.610756 35.178968
v 6.574364 0.831131 35.178968
v 6.685760 4.608776 35.178968
v 15.040015 0.904405 21.860368
v 15.038514 0.869967 34.435465
v 15.160692 4.635921 21.810136
v 15.157587 4.646191 34.582642
v 15.039163 0.884843 28.809708
v 15.158921 4.641773 28.787505
v 15.039319 0.888396 27.871279
v 15.159244 4.640709 27.907827
v 6.574364 0.831131 43.269573
v 6.685760 4.608776 43.269573
v 20.101853 4.599597 43.269573
v 19.904051 0.810137 43.269573
v -12.194656 4.619888 43.269573
v 5.814315 4.610756 43.269573
v 5.729602 0.835531 43.269573
v -12.179439 0.778979 43.269573
v 22.355463 0.888396 27.871279
v 22.475386 4.640709 27.907827
v 22.476836 4.635921 21.810136
v 22.356157 0.904405 21.860368
v 22.354658 0.869967 39.841572
v 22.473729 4.646191 39.988748
v 22.475065 4.641773 28.787505
v 22.355306 0.884843 28.809708
vt 0.375000 0.000000
vt 0.625000 0.000000
vt 0.375000 0.250000
vt 0.625000 0.250000
vt 0.375000 0.500000
vt 0.625000 0.500000
vt 0.375000 0.750000
vt 0.625000 0.750000
vt 0.375000 1.000000
vt 0.625000 1.000000
vt 0.875000 0.000000
vt 0.875000 0.250000
vt 0.125000 0.000000
vt 0.125000 0.250000
vt 0.570789 0.250000
vt 0.574970 0.000000
vt 0.574970 1.000000
vt 0.570789 0.250000
vt 0.574970 0.000000
vt 0.625000 0.000000
vt 0.625000 0.250000
vt 0.558524 0.193021
vt 0.386097 0.190601
vt 0.385872 0.041725
vt 0.559757 0.042798
vt 0.462801 0.191677
vt 0.464129 0.042208
vt 0.479386 0.191910
vt 0.481101 0.042313
vt 0.571873 0.185183
vt 0.571842 0.187004
vt 0.574306 0.039732
vt 0.574243 0.043481
vt 0.571855 0.186217
vt 0.574270 0.041868
vt 0.571859 0.186029
vt 0.574277 0.041480
vt 0.479386 0.191910
vt 0.481101 0.042313
vt 0.559757 0.042798
vt 0.558524 0.193021
vt 0.385872 0.041725
vt 0.464129 0.042208
vt 0.462801 0.191677
vt 0.386097 0.190601
vt 0.571859 0.186029
vt 0.574277 0.041480
vt 0.574306 0.039732
vt 0.571873 0.185183
vt 0.571842 0.187004
vt 0.574243 0.043481
vt 0.574270 0.041868
vt 0.571855 0.186217
vn 0.000000 -0.000000 -1.000000
vn 0.000000 -0.000000 -1.000000
vn 0.000000 -0.000000 -1.000000
vn 0.000000 -0.000000 -1.000000
vn 0.000000 -1.000000 0.000000
vn 0.000000 -1.000000 0.000000
vn 0.000000 -1.000000 0.000000
vn 0.000000 -1.000000 0.000000
vn 0.000000 -1.000000 0.000000
vn 0.000000 0.000000 1.000000
vn 0.000000 0.000000 1.000000
vn 0.000000 0.000000 1.000000
vn 0.000000 0.000000 1.000000
vn 0.000000 1.000000 -0.000000
vn 0.000000 1.000000 -0.000000
vn 0.000000 1.000000 -0.000000
vn 0.000000 1.000000 -0.000000
vn 0.000000 1.000000 -0.000000
vn 1.000000 -0.000000 0.000000
vn 1.000000 -0.000000 0.000000
vn 1.000000 -0.000000 0.000000
vn 1.000000 -0.000000 0.000000
vn -1.000000 0.000000 0.000000
vn -1.000000 0.000000 0.000000
vn -1.000000 0.000000 0.000000
vn -1.000000 0.000000 0.000000
vn -0.000000 0.000001 -1.000000
vn -0.000000 0.000001 -1.000000
vn -0.000000 -0.000002 -1.000000
vn -0.000000 -0.000002 -1.000000
vn -0.995560 0.093958 0.005660
vn -0.998333 0.057475 0.005204
vn -0.998264 0.058743 0.004329
vn -0.995785 0.091512 0.006211
vn 0.000000 1.000000 -0.000000
vn 0.000000 1.000000 -0.000000
vn 1.000000 -0.000000 0.000000
vn 1.000000 -0.000000 0.000000
vn 0.000000 -1.000000 0.000000
vn 0.000000 -1.000000 0.000000
vn -0.000000 -0.000002 -1.000000
vn -0.000000 -0.000002 -1.000000
vn 0.000000 -0.000001 -1.000000
vn 0.000000 -0.000002 -1.000000
vn 0.000000 0.000001 -1.000000
vn 0.000000 0.000001 -1.000000
vn 0.000000 0.000001 -1.000000
vn 0.000000 0.000001 -1.000000
vn -0.000000 -0.000000 -1.000000
vn -0.000000 -0.000000 -1.000000
vn -0.000000 -0.000000 -1.000000
vn -0.000000 -0.000000 -1.000000
vn 0.000000 -0.000000 -1.000000
vn 0.000000 -0.000000 -1.000000
vn 0.000000 -0.000000 -1.000000
vn 0.000000 -0.000000 -1.000000
vn -0.996197 0.086932 -0.005841
vn -0.995488 0.094790 -0.004369
vn -0.995049 0.099384 0.000027
vn -0.995056 0.099313 0.000027
vn -0.999484 0.032132 -0.000147
vn -0.999484 0.032132 -0.000147
vn -0.999484 0.032132 -0.000147
vn -0.999484 0.032132 -0.000147
vn -0.998266 0.058753 -0.003720
vn -0.998356 0.057130 -0.004619
vn -0.998274 0.058723 -0.000156
vn -0.998273 0.058744 -0.000156
vn -0.999498 0.031689 -0.000074
vn -0.999498 0.031689 -0.000074
vn -0.999498 0.031689 -0.000074
vn -0.999498 0.031689 -0.000074
vn 0.999565 -0.029476 0.000000
vn 0.999565 -0.029476 0.000000
vn 0.999565 -0.029476 0.000000
vn 0.999565 -0.029476 0.000000
vn -0.000869 -1.000000 0.000306
vn -0.000869 -1.000000 0.000306
vn -0.000869 -1.000000 0.000306
vn -0.000869 -1.000000 0.000306
vn -0.816619 0.042626 0.575601
vn -0.816619 0.042626 0.575601
vn -0.816619 0.042626 0.575601
vn -0.816619 0.042626 0.575601
vn 0.002004 0.999998 -0.000706
vn 0.002004 0.999998 -0.000706
vn 0.002004 0.999998 -0.000706
vn 0.002004 0.999998 -0.000706
vn -0.000507 -1.000000 0.000000
vn -0.000507 -1.000000 0.000000
vn -0.000507 -1.000000 0.000000
vn -0.000507 -1.000000 0.000000
vn -0.999748 0.022434 -0.000000
vn -0.999748 0.022434 -0.000000
vn -0.999748 0.022434 -0.000000
vn -0.999748 0.022434 -0.000000
vn -0.003158 0.999995 -0.000000
vn -0.003158 0.999995 -0.000000
vn -0.003158 0.999995 -0.000000
vn -0.003158 0.999995 -0.000000
vn 0.999992 0.003962 -0.000000
vn 0.999992 0.003962 -0.000000
vn 0.999992 0.003962 -0.000000
vn 0.999992 0.003962 -0.000000
vn 0.000000 0.009740 -0.999953
vn 0.000000 0.009740 -0.999953
vn 0.000000 0.009740 -0.999953
vn 0.000000 0.009740 -0.999953
vn 0.000000 -1.000000 0.000785
vn 0.000000 -1.000000 0.000785
vn 0.000000 -1.000000 0.000785
vn 0.000000 -1.000000 0.000785
vn 0.000000 0.013460 0.999909
vn 0.000000 0.013460 0.999909
vn 0.000000 0.013460 0.999909
vn 0.000000 0.013460 0.999909
vn 0.000000 0.999996 0.002663
vn 0.000000 0.999996 0.002663
vn 0.000000 0.999996 0.002663
vn 0.000000 0.999996 0.002663
vn 0.594239 0.012606 -0.804190
vn 0.594239 0.012606 -0.804190
vn 0.594239 0.012606 -0.804190
vn 0.594239 0.012606 -0.804190
vn -0.000192 -1.000000 0.000520
vn -0.000192 -1.000000 0.000520
vn -0.000192 -1.000000 0.000520
vn -0.000192 -1.000000 0.000520
vn 0.000000 0.005910 0.999983
vn 0.000000 0.005910 0.999982
vn 0.000000 0.005910 0.999983
vn 0.000000 0.005910 0.999982
vn -0.000660 0.999998 0.001786
vn -0.000660 0.999998 0.001786
vn -0.000660 0.999998 0.001786
vn -0.000660 0.999998 0.001786
s off
g under_counter_cupboard under_counter_cupboards1
usemtl standardSurface16SG
f 11/18/1 12/19/2 13/20/3 14/21/4
s 1
f 3/3/5 9/15/6 4/4/7 6/6/8 5/5/9
s off
f 5/5/10 6/6/11 8/8/12 7/7/13
s 2
f 7/7/14 8/8/15 2/10/16 10/17/17 1/9/18
s 3
f 2/2/19 8/11/20 6/12/21 4/4/22
s off
f 7/13/23 1/1/24 3/3/25 5/14/26
s 4
f 1/1/27 17/24/28 16/23/29 3/3/30
s 5
f 23/30/31 25/32/32 12/19/33 11/18/34
s 2
f 10/16/17 2/2/16 13/20/35 12/19/36
s 3
f 2/2/19 4/4/22 14/21/37 13/20/38
s 1
f 4/4/7 9/15/6 11/18/39 14/21/40
s 4
f 3/3/30 16/23/29 19/26/41 21/28/42 15/22/43 9/15/44
f 15/22/43 18/25/45 10/16/46 9/15/44
f 1/1/27 10/16/46 18/25/45 22/29/47 20/27/48 17/24/28
s off
f 31/38/49 32/39/50 33/40/51 34/41/52
f 35/42/53 36/43/54 37/44/55 38/45/56
s 4
f 19/26/41 20/27/48 22/29/47 21/28/42
s 5
f 9/15/57 24/31/58 27/34/59 29/36/60 23/30/31 11/18/34
s off
f 39/46/61 40/47/62 41/48/63 42/49/64
s 5
f 9/15/57 10/16/65 26/33/66 24/31/58
f 25/32/32 30/37/67 28/35/68 26/33/66 10/16/65 12/19/33
s off
f 43/50/69 44/51/70 45/52/71 46/53/72
s 5
f 27/34/59 28/35/68 30/37/67 29/36/60
s off
f 21/28/73 22/29/74 32/39/75 31/38/76
f 22/29/77 18/25/78 33/40/79 32/39/80
f 18/25/81 15/22/82 34/41/83 33/40/84
f 15/22/85 21/28/86 31/38/87 34/41/88
f 17/24/89 20/27/90 36/43/91 35/42/92
f 20/27/93 19/26/94 37/44/95 36/43/96
f 19/26/97 16/23/98 38/45/99 37/44/100
f 16/23/101 17/24/102 35/42/103 38/45/104
f 29/36/105 30/37/106 40/47/107 39/46/108
f 30/37/109 25/32/110 41/48/111 40/47/112
f 25/32/113 23/30/114 42/49/115 41/48/116
f 23/30/117 29/36/118 39/46/119 42/49/120
f 24/31/121 26/33/122 44/51/123 43/50/124
f 26/33/125 28/35/126 45/52/127 44/51/128
f 28/35/129 27/34/130 46/53/131 45/52/132
f 27/34/133 24/31/134 43/50/135 46/53/136
