# This file uses centimeters as units for non-parametric coordinates.

mtllib walls.mtl
g default
v 23.900017 0.098182 44.662982
v 23.900017 22.559570 44.662982
v -65.455128 22.559570 44.662982
v -65.455128 0.098182 44.662982
v -64.405053 0.098182 43.721610
v -64.405053 22.559570 43.721610
v -65.455128 0.098182 -19.162275
v -65.455128 22.559570 -19.162275
v -64.405053 0.098182 -18.211367
v -64.405053 22.559570 -18.211367
v 23.724542 0.098182 -19.162275
v 23.724542 22.559570 -19.162275
v 22.990985 0.098182 43.721610
v 22.990984 22.559570 43.721610
v 22.815073 0.098182 -18.211367
v 22.815073 22.559570 -18.211367
v -25.267364 0.098182 -19.570903
v -16.247800 0.098182 -19.570903
v -16.121702 17.081872 -19.570903
v -25.272216 17.095749 -19.570903
v -25.215277 0.022663 -18.201654
v -16.268844 0.098182 -18.211367
v -25.279899 16.668662 -18.211375
v -16.289638 16.681860 -18.211367
v -24.224594 0.098182 44.662982
v -15.183669 0.098182 44.662982
v -24.335052 17.241550 44.662982
v -15.204361 17.163812 44.662982
v -15.212529 0.098182 43.721610
v -24.228971 0.098182 43.721610
v -15.232862 17.058670 43.721610
v -24.262097 17.033805 43.721610
vt 0.423718 0.498718
vt 0.435898 0.251602
vt 0.562500 0.436328
vt 0.458333 0.751563
vt 0.127344 0.000000
vt 0.127344 0.250000
vt 0.625000 0.754688
vt 0.870312 0.000000
vt 0.870312 0.250000
vt 0.873437 0.250000
vt 0.873437 0.000000
vt 0.870312 0.000000
vt 0.870312 0.250000
vt 0.870312 0.250000
vt 0.870312 0.000000
vt 0.628205 0.496795
vt 0.628205 0.253205
vt 0.870312 0.000000
vt 0.870312 0.250000
vt 0.870312 0.000000
vt 0.870312 0.000000
vt 0.870312 0.137785
vt 0.870312 0.137939
vt 0.870312 0.000000
vt 0.870312 0.000000
vt 0.870312 0.132776
vt 0.870312 0.133396
vt 0.349815 0.429300
vt 0.366252 0.444740
vt 0.257239 0.266915
vt 0.296444 0.267218
vt 0.680204 0.444796
vt 0.695617 0.429383
vt 0.733686 0.387733
vt 0.764979 0.323243
vn 0.999996 0.000000 -0.002749
vn 0.999996 0.000000 -0.002749
vn 0.999996 0.000000 -0.002749
vn 0.999996 0.000000 -0.002749
vn 0.000000 1.000000 0.000000
vn 0.000000 1.000000 0.000000
vn 0.000000 1.000000 0.000000
vn 0.000000 1.000000 0.000000
vn 0.000000 1.000000 0.000000
vn 0.000000 1.000000 0.000000
vn 0.000000 1.000000 0.000000
vn 0.000000 1.000000 0.000000
vn -1.000000 0.000000 -0.000000
vn -1.000000 0.000000 -0.000000
vn -1.000000 0.000000 -0.000000
vn -1.000000 0.000000 -0.000000
vn 0.000000 -1.000000 0.000000
vn 0.000000 -1.000000 0.000000
vn 0.000000 -1.000000 0.000000
vn 0.000000 -1.000000 0.000000
vn 0.000000 -1.000000 0.000000
vn 0.000000 -1.000000 0.000000
vn 0.000000 -1.000000 0.000000
vn 0.000000 -1.000000 0.000000
vn 0.000000 -0.000000 1.000000
vn 0.000000 -0.000000 1.000000
vn 0.000000 -0.000000 1.000000
vn 0.000000 -0.000000 1.000000
vn 0.000000 -0.000000 1.000000
vn 0.000000 -0.000000 1.000000
vn 0.000000 -0.000000 1.000000
vn 0.000000 -0.000000 1.000000
vn 1.000000 0.000000 0.000000
vn 1.000000 0.000000 0.000000
vn 1.000000 0.000000 0.000000
vn 1.000000 0.000000 0.000000
vn -0.000044 0.000105 1.000000
vn -0.000044 0.000105 1.000000
vn -0.000044 0.000105 1.000000
vn -0.000044 0.000105 1.000000
vn -0.000044 0.000105 1.000000
vn -0.000044 0.000105 1.000000
vn -0.000044 0.000105 1.000000
vn -0.000044 0.000105 1.000000
vn 0.000000 0.010852 -0.999941
vn 0.000000 0.010852 -0.999941
vn 0.000000 0.010852 -0.999941
vn 0.000000 0.010852 -0.999941
vn 0.000000 0.010852 -0.999941
vn 0.000000 0.010852 -0.999941
vn 0.000000 0.010852 -0.999941
vn 0.000000 0.010852 -0.999941
vn 0.000000 0.000000 -1.000000
vn 0.000000 0.000000 -1.000000
vn 0.000000 0.000000 -1.000000
vn 0.000000 0.000000 -1.000000
vn 0.000000 0.000000 -1.000000
vn 0.000000 0.000000 -1.000000
vn 0.000000 0.000000 -1.000000
vn 0.000000 0.000000 -1.000000
vn -0.999996 -0.000000 0.002840
vn -0.999996 -0.000000 0.002840
vn -0.999996 -0.000000 0.002840
vn -0.999996 -0.000000 0.002840
vn -0.000036 -0.956717 -0.291021
vn -0.000036 -0.956717 -0.291021
vn -0.000036 -0.956717 -0.291021
vn -0.000036 -0.956717 -0.291021
vn 0.999872 0.002060 -0.015889
vn 0.999872 0.002060 -0.015889
vn 0.999872 0.002060 -0.015889
vn 0.999872 0.002060 -0.015889
vn -0.997621 0.003130 -0.068874
vn -0.997621 0.003130 -0.068874
vn -0.997621 0.003130 -0.068874
vn -0.997621 0.003130 -0.068874
vn -0.000341 -0.999952 -0.009819
vn -0.000341 -0.999952 -0.009819
vn -0.000341 -0.999952 -0.009819
vn -0.000341 -0.999952 -0.009819
vn -0.000341 -0.999952 -0.009819
vn -0.000341 -0.999952 -0.009819
vn -0.000341 -0.999952 -0.009819
vn -0.000341 -0.999952 -0.009819
vn -0.002872 -0.986477 0.163872
vn -0.002872 -0.986477 0.163872
vn -0.002872 -0.986477 0.163872
vn -0.002872 -0.986477 0.163872
vn -0.999533 -0.001205 0.030517
vn -0.999533 -0.001205 0.030517
vn -0.999533 -0.001205 0.030517
vn -0.999533 -0.001205 0.030517
vn 0.999345 0.004211 0.035938
vn 0.999345 0.004211 0.035938
vn 0.999345 0.004211 0.035938
vn 0.999345 0.004211 0.035938
s off
g walls
usemtl standardSurface3SG
f 2/2/1 1/1/2 11/15/3 12/14/4
f 2/2/5 12/14/6 8/10/7 3/3/8 14/17/9 6/9/10 10/13/11 16/19/12
f 4/4/13 3/3/14 8/10/15 7/11/16
f 13/16/17 15/18/18 22/25/19 18/21/20 11/15/21 1/1/22 26/29/23 29/32/24
f 1/1/25 2/2/26 3/6/27 4/5/28 25/28/29 27/30/30 28/31/31 26/29/32
f 6/9/33 5/8/34 9/12/35 10/13/36
f 10/13/37 9/12/38 21/24/39 23/26/40 24/27/41 22/25/42 15/18/43 16/19/44
f 11/15/45 18/21/46 19/22/47 20/23/48 17/20/49 7/11/50 8/10/51 12/14/52
f 14/17/53 13/16/54 29/32/55 31/34/56 32/35/57 30/33/58 5/8/59 6/9/60
f 13/16/61 14/17/62 16/19/63 15/18/64
f 20/23/65 19/22/66 24/27/67 23/26/68
f 21/24/69 17/20/70 20/23/71 23/26/72
f 18/21/73 22/25/74 24/27/75 19/22/76
f 30/33/77 25/28/78 4/4/79 7/11/80 17/20/81 21/24/82 9/12/83 5/7/84
f 28/31/85 27/30/86 32/35/87 31/34/88
f 29/32/89 26/29/90 28/31/91 31/34/92
f 25/28/93 30/33/94 32/35/95 27/30/96
