# This file uses centimeters as units for non-parametric coordinates.

mtllib window_frame.mtl
g default
v -63.924690 11.444087 19.140499
v -64.702328 11.444087 19.140499
v -63.924690 19.824222 19.140499
v -64.702328 19.824222 19.140499
v -63.924690 19.824222 19.608673
v -64.702328 19.824222 19.608673
v -63.924690 11.444087 19.608673
v -64.702328 11.444087 19.608673
v -63.924690 19.473347 19.140499
v -63.924690 19.473343 19.608673
v -64.702328 19.473343 19.608673
v -64.702328 19.473347 19.140499
v -63.924690 11.847475 19.140499
v -63.924690 11.847473 19.608673
v -64.702328 11.847473 19.608673
v -64.702328 11.847475 19.140499
v -64.702328 19.447052 7.020639
v -63.924690 19.447052 7.020639
v -64.702328 19.824222 7.011002
v -63.924690 19.824222 7.011002
v -63.924690 11.444087 7.030275
v -64.702328 11.444087 7.030275
v -64.702328 11.847475 7.030275
v -63.924690 11.847475 7.030275
v -63.924690 11.444087 7.518462
v -63.924690 11.847475 7.518462
v -64.702328 11.847475 7.518462
v -64.702328 11.444087 7.518462
v -63.924690 19.447052 7.505248
v -64.702328 19.447052 7.505248
v -63.924690 19.824222 7.492035
v -64.702328 19.824222 7.492035
v -64.702328 19.461071 13.601488
v -63.924690 19.460910 13.532083
v -64.702328 19.459871 13.072309
v -63.924690 19.459743 13.015065
v -63.924690 11.847475 13.557351
v -64.702328 11.847475 13.656397
v -63.924690 11.847475 13.071274
v -64.702328 11.847475 13.033882
v -63.924690 15.701383 19.140499
v -64.702328 15.710979 19.140499
v -63.924690 15.152512 19.140499
v -64.702328 15.260054 19.140499
v -63.924690 15.642062 7.510852
v -64.702328 15.723830 7.511212
v -64.702328 15.310109 7.512307
v -63.924690 15.190584 7.512148
v -64.702328 15.769446 13.650986
v -63.924690 15.709364 13.596421
v -64.702328 15.301080 13.669184
v -63.924690 15.179506 13.618275
v -63.924690 15.701959 13.047446
v -64.702328 15.727545 13.066077
v -63.924690 15.228205 13.063914
v -64.702328 15.319773 13.072381
vt 0.375000 0.000000
vt 0.625000 0.000000
vt 0.375000 0.250000
vt 0.625000 0.250000
vt 0.375000 0.500000
vt 0.625000 0.500000
vt 0.375000 0.750000
vt 0.625000 0.750000
vt 0.375000 1.000000
vt 0.625000 1.000000
vt 0.875000 0.000000
vt 0.875000 0.250000
vt 0.125000 0.000000
vt 0.125000 0.250000
vt 0.375000 0.239533
vt 0.125000 0.239532
vt 0.375000 0.510468
vt 0.625000 0.510468
vt 0.875000 0.239532
vt 0.625000 0.239533
vt 0.375000 0.012034
vt 0.125000 0.012034
vt 0.375000 0.737966
vt 0.625000 0.737966
vt 0.875000 0.012034
vt 0.625000 0.012034
vt 0.375000 0.239533
vt 0.625000 0.239533
vt 0.625000 0.250000
vt 0.375000 0.250000
vt 0.375000 0.000000
vt 0.625000 0.000000
vt 0.625000 0.012034
vt 0.375000 0.012034
vt 0.375000 0.000000
vt 0.375000 0.012034
vt 0.625000 0.012034
vt 0.625000 0.000000
vt 0.625000 0.012034
vt 0.375000 0.012034
vt 0.375000 0.012034
vt 0.625000 0.012034
vt 0.625000 0.239533
vt 0.375000 0.239533
vt 0.375000 0.250000
vt 0.625000 0.250000
vt 0.625000 0.239533
vt 0.375000 0.239533
vt 0.625000 0.239533
vt 0.375000 0.239533
vt 0.375000 0.012034
vt 0.625000 0.012034
vt 0.375000 0.012034
vt 0.625000 0.012034
vt 0.375000 0.135620
vt 0.625000 0.132451
vt 0.375000 0.112377
vt 0.625000 0.113018
vt 0.375000 0.012034
vt 0.625000 0.012034
vt 0.625000 0.012034
vt 0.375000 0.012034
vt 0.625000 0.145931
vt 0.375000 0.147486
vt 0.625000 0.125946
vt 0.375000 0.127383
vt 0.375000 0.144620
vt 0.625000 0.141739
vt 0.375000 0.121672
vt 0.625000 0.120839
vn 0.000000 0.000000 -1.000000
vn 0.000000 0.000000 -1.000000
vn 0.000000 -0.001204 -0.999999
vn 0.000000 -0.001204 -0.999999
vn 0.000000 1.000000 -0.000000
vn 0.000000 1.000000 -0.000000
vn 0.000000 1.000000 -0.000000
vn 0.000000 1.000000 -0.000000
vn -0.000000 0.000000 1.000000
vn -0.000000 0.000000 1.000000
vn -0.000000 0.000000 1.000000
vn -0.000000 0.000000 1.000000
vn 0.000000 -1.000000 0.000000
vn 0.000000 -1.000000 0.000000
vn 0.000000 -1.000000 0.000000
vn 0.000000 -1.000000 0.000000
vn -1.000000 -0.000000 -0.000000
vn -1.000000 0.000000 -0.000000
vn -1.000000 0.000000 -0.000000
vn -1.000000 -0.000000 -0.000000
vn 1.000000 0.000000 0.000000
vn 1.000000 -0.000000 0.000000
vn 1.000000 -0.000000 0.000000
vn 1.000000 0.000000 0.000000
vn 1.000000 0.000000 0.000000
vn 1.000000 0.000000 0.000000
vn 1.000000 0.000000 0.000000
vn 1.000000 0.000000 0.000000
vn -0.000000 0.000000 1.000000
vn -0.000000 0.000000 1.000000
vn -0.000000 0.000000 1.000000
vn -0.000000 0.000000 1.000000
vn -1.000000 0.000000 -0.000000
vn -1.000000 0.000000 -0.000000
vn -1.000000 0.000000 -0.000000
vn -1.000000 0.000000 -0.000000
vn 0.000000 -0.025542 -0.999674
vn 0.000000 -0.025542 -0.999674
vn 0.000000 -0.025542 -0.999674
vn 0.000000 -0.025542 -0.999674
vn 1.000000 0.000000 0.000000
vn 1.000000 0.000000 0.000000
vn -1.000000 0.000000 -0.000000
vn -1.000000 0.000000 -0.000000
vn 0.000000 0.000000 -1.000000
vn 0.000000 0.000000 -1.000000
vn 0.000000 0.000000 -1.000000
vn 0.000000 0.000000 -1.000000
vn -0.000005 -0.999998 0.002217
vn -0.000005 -0.999998 0.002217
vn -0.000005 -0.999998 0.002217
vn -0.000005 -0.999998 0.002217
vn -1.000000 0.000000 -0.000000
vn -1.000000 0.000000 -0.000000
vn -1.000000 0.000000 -0.000000
vn -1.000000 0.000000 -0.000000
vn 0.000000 1.000000 -0.000000
vn 0.000000 1.000000 -0.000000
vn 1.000000 0.000000 0.000000
vn 1.000000 0.000000 0.000000
vn 1.000000 0.000000 0.000000
vn 1.000000 0.000000 0.000000
vn 0.000000 -1.000000 0.000000
vn 0.000000 -1.000000 0.000000
vn -1.000000 -0.000000 -0.000000
vn -1.000000 -0.000000 -0.000000
vn -1.000000 -0.000000 -0.000000
vn -1.000000 -0.000000 -0.000000
vn 0.000000 1.000000 -0.000000
vn 0.000000 1.000000 -0.000000
vn 0.000000 1.000000 -0.000000
vn 0.000000 1.000000 -0.000000
vn 1.000000 -0.000000 0.000000
vn 1.000000 -0.000000 0.000000
vn 1.000000 -0.000000 0.000000
vn 1.000000 -0.000000 0.000000
vn 1.000000 0.000000 0.000000
vn 1.000000 0.000000 0.000000
vn -1.000000 0.000000 -0.000000
vn -1.000000 0.000000 -0.000000
vn 0.000000 -1.000000 0.000000
vn 0.000000 -1.000000 0.000000
vn 1.000000 0.000000 0.000000
vn 1.000000 0.000000 0.000000
vn 1.000000 0.000000 0.000000
vn 1.000000 0.000000 0.000000
vn 0.000000 -0.001268 -0.999999
vn 0.000000 -0.001268 -0.999999
vn -1.000000 0.000000 -0.000000
vn -1.000000 0.000000 -0.000000
vn -1.000000 0.000000 -0.000000
vn -1.000000 0.000000 -0.000000
vn 1.000000 0.000000 0.000000
vn 1.000000 0.000000 0.000000
vn 0.000000 1.000000 -0.000000
vn 0.000000 1.000000 -0.000000
vn -1.000000 0.000000 -0.000000
vn -1.000000 0.000000 -0.000000
vn 0.000003 -0.999997 0.002303
vn 0.000003 -0.999997 0.002303
vn 0.000003 -0.999997 0.002303
vn 0.000003 -0.999997 0.002303
vn 0.000000 1.000000 -0.000000
vn 0.000000 1.000000 -0.000000
vn 0.000000 1.000000 -0.000000
vn 0.000000 1.000000 -0.000000
vn -0.048784 -0.003487 -0.998803
vn -0.048784 -0.003487 -0.998803
vn -0.048784 -0.003487 -0.998803
vn -0.048784 -0.003487 -0.998803
vn 1.000000 0.000000 0.000000
vn 1.000000 0.000000 0.000000
vn 1.000000 0.000000 0.000000
vn 1.000000 0.000000 0.000000
vn 1.000000 0.000000 0.000000
vn 1.000000 0.000000 0.000000
vn 1.000000 0.000000 0.000000
vn 1.000000 0.000000 0.000000
vn 0.080035 0.015243 0.996675
vn 0.080035 0.015243 0.996675
vn 0.080035 0.015243 0.996675
vn 0.080035 0.015243 0.996675
vn -1.000000 -0.000000 -0.000000
vn -1.000000 -0.000000 -0.000000
vn -1.000000 -0.000000 -0.000000
vn -1.000000 -0.000000 -0.000000
vn -1.000000 -0.000000 -0.000000
vn -1.000000 -0.000000 -0.000000
vn -1.000000 -0.000000 -0.000000
vn -1.000000 -0.000000 -0.000000
vn 0.000000 0.000000 -1.000000
vn 0.000000 0.000000 -1.000000
vn 0.000000 0.000000 -1.000000
vn 0.000000 0.000000 -1.000000
vn 0.000312 0.001537 0.999999
vn 0.000312 0.001537 0.999999
vn 0.000312 0.001537 0.999999
vn 0.000312 0.001537 0.999999
vn 0.000245 0.001832 0.999998
vn 0.000245 0.001832 0.999998
vn 0.000245 0.001832 0.999998
vn 0.000245 0.001832 0.999998
vn 0.095129 -0.010813 0.995406
vn 0.095129 -0.010813 0.995406
vn 0.095129 -0.010813 0.995406
vn 0.095129 -0.010813 0.995406
vn 0.018862 0.004543 -0.999812
vn 0.018862 0.004543 -0.999812
vn 0.018862 0.004543 -0.999812
vn 0.018862 0.004543 -0.999812
vn -1.000000 0.000000 -0.000000
vn -1.000000 0.000000 -0.000000
vn -1.000000 0.000000 -0.000000
vn -1.000000 0.000000 -0.000000
vn -0.134469 -0.990909 0.004217
vn -0.134469 -0.990909 0.004217
vn -0.134469 -0.990909 0.004217
vn -0.134469 -0.990909 0.004217
vn 1.000000 0.000000 0.000000
vn 1.000000 0.000000 0.000000
vn 1.000000 0.000000 0.000000
vn 1.000000 0.000000 0.000000
vn 0.068792 0.997615 -0.005721
vn 0.068792 0.997615 -0.005721
vn 0.068792 0.997615 -0.005721
vn 0.068792 0.997615 -0.005721
vn 0.044966 0.998970 0.006016
vn 0.044966 0.998970 0.006016
vn 0.044966 0.998970 0.006016
vn 0.044966 0.998970 0.006016
vn 1.000000 0.000000 0.000000
vn 1.000000 0.000000 0.000000
vn 1.000000 0.000000 0.000000
vn 1.000000 0.000000 0.000000
vn -0.145936 -0.989275 -0.006121
vn -0.145936 -0.989275 -0.006121
vn -0.145936 -0.989275 -0.006121
vn -0.145936 -0.989275 -0.006121
vn -1.000000 0.000000 -0.000000
vn -1.000000 0.000000 -0.000000
vn -1.000000 0.000000 -0.000000
vn -1.000000 0.000000 -0.000000
s 1
g window_frame_1 window1
usemtl standardSurface6SG
f 21/31/1 22/32/2 23/33/3 24/34/4
s 2
f 3/3/5 4/4/6 6/6/7 5/5/8
s 3
f 14/23/9 15/24/10 8/8/11 7/7/12
s 4
f 7/7/13 8/8/14 2/10/15 1/9/16
s 5
f 2/2/17 8/11/18 15/25/19 16/26/20
s 6
f 7/13/21 1/1/22 13/21/23 14/22/24
f 10/16/25 9/15/26 3/3/27 5/14/28
s 3
f 5/5/29 6/6/30 11/18/31 10/17/32
s 5
f 12/20/33 11/19/34 6/12/35 4/4/36
s off
f 18/27/37 17/28/38 19/29/39 20/30/40
s 6
f 14/22/24 13/21/23 43/57/41 41/55/42 9/15/26 10/16/25
s 3
f 10/17/32 11/18/31 15/24/10 14/23/9
s 5
f 16/26/20 15/25/19 11/19/34 12/20/33 42/56/43 44/58/44
s off
f 41/55/45 42/56/46 12/20/47 9/15/48
f 9/15/49 12/20/50 33/47/51 34/48/52
s 5
f 12/20/33 4/4/36 32/46/53 30/43/54 35/49/55 33/47/56
s 2
f 4/4/6 3/3/5 31/45/57 32/46/58
s 6
f 3/3/27 9/15/26 34/48/59 36/50/60 29/44/61 31/45/62
s 4
f 1/1/16 2/2/15 28/38/63 25/35/64
s 5
f 2/2/17 16/26/20 38/52/65 40/54/66 27/37/67 28/38/68
s off
f 16/26/69 13/21/70 37/51/71 38/52/72
s 6
f 13/21/23 1/1/22 25/35/73 26/36/74 39/53/75 37/51/76
f 26/36/74 25/35/73 21/31/77 24/34/78
s 5
f 28/38/68 27/37/67 23/33/79 22/32/80
s 4
f 25/35/64 28/38/63 22/32/81 21/31/82
s 6
f 26/36/74 24/34/78 18/41/83 29/40/84 45/59/85 48/62/86
s 1
f 24/34/4 23/33/3 17/42/87 18/41/88
s 5
f 23/33/79 27/37/67 47/61/89 46/60/90 30/39/91 17/42/92
s 6
f 31/45/62 29/44/61 18/27/93 20/30/94
s 2
f 32/46/58 31/45/57 20/30/95 19/29/96
s 5
f 30/43/54 32/46/53 19/29/97 17/28/98
s off
f 36/50/99 35/49/100 30/43/101 29/44/102
f 40/54/103 39/53/104 26/36/105 27/37/106
f 35/49/107 36/50/108 53/67/109 54/68/110
f 36/50/111 34/48/112 50/64/113 52/66/114 37/51/115 39/53/116 55/69/117 53/67/118
f 34/48/119 33/47/120 49/63/121 50/64/122
f 33/47/123 35/49/124 54/68/125 56/70/126 40/54/127 38/52/128 51/65/129 49/63/130
f 13/21/131 16/26/132 44/58/133 43/57/134
f 46/60/135 45/59/136 29/40/137 30/39/138
f 27/37/139 26/36/140 48/62/141 47/61/142
f 52/66/143 51/65/144 38/52/145 37/51/146
f 56/70/147 55/69/148 39/53/149 40/54/150
f 46/60/151 47/61/152 56/70/153 54/68/154
f 47/61/155 48/62/156 55/69/157 56/70/158
f 48/62/159 45/59/160 53/67/161 55/69/162
f 45/59/163 46/60/164 54/68/165 53/67/166
f 42/56/167 41/55/168 50/64/169 49/63/170
f 41/55/171 43/57/172 52/66/173 50/64/174
f 43/57/175 44/58/176 51/65/177 52/66/178
f 44/58/179 42/56/180 49/63/181 51/65/182
